Get ready for one of the most explosive episodes in Mythbusters' history, as the team unveil their A to Z of explosions. This is the ultimate guide to everything that goes boom, as Adam, Jamie, Kari, Grant and Tory reminisce about their favourite explosions from the past. They kick things off with A for Audit where they do a monumental countdown of the history of the show's explosions where it's revealed that there have been 752 detonations and counting. 

General
Complete name : F:1 movMythbusters.S10E14.The A To Z of Explosives.mp4
Format : MPEG-4
Format profile : Base Media / Version 2
Codec ID : mp42
File size : 338 MiB
Duration : 50mn 39s
Overall bit rate : 933 Kbps
Encoded date : UTC 2012-09-24 06:25:21
Tagged date : UTC 2012-09-24 06:25:21
Writing library : AVS 

Video
ID : 1
Format : AVC
Format/Info : Advanced Video Codec
Format profile : Main@L5.1
Format settings, CABAC : Yes
Format settings, ReFrames : 1 frame
Codec ID : avc1
Codec ID/Info : Advanced Video Coding
Duration : 50mn 39s
Bit rate : 803 Kbps
Width : 640 pixels
Height : 360 pixels
Display aspect ratio : 16:9
Frame rate mode : Constant
Frame rate : 25.000 fps
Color space : YUV
Chroma subsampling : 4:2:0
Bit depth : 8 bits
Scan type : Progressive
Bits/(Pixel*Frame) : 0.139
Stream size : 291 MiB (86%)
Language : English
Encoded date : UTC 2012-09-24 06:25:21
Tagged date : UTC 2012-09-24 06:25:21
Color primaries : BT.709
Transfer characteristics : BT.709
Matrix coefficients : BT.709

Audio
ID : 2
Format : AAC
Format/Info : Advanced Audio Codec
Format profile : LC
Codec ID : 40
Duration : 50mn 38s
Bit rate mode : Constant
Bit rate : 128 Kbps
Channel(s) : 2 channels
Channel positions : Front: L R
Sampling rate : 48.0 KHz
Compression mode : Lossy
Stream size : 45.4 MiB (13%)
Language : English
Encoded date : UTC 2012-09-24 06:25:21
Tagged date : UTC 2012-09-24 06:25:21
mdhd_Duration : 3038997